<?xml version="1.0" encoding="UTF-8"?>
<svg width="14px" height="15px" viewBox="0 0 14 15" version="1.1" xmlns="http://www.w3.org/2000/svg" xmlns:xlink="http://www.w3.org/1999/xlink">
    <!-- Generator: Sketch 55.1 (78136) - https://sketchapp.com -->
    <title>形状</title>
    <desc>Created with Sketch.</desc>
    <g id="页面1" stroke="none" stroke-width="1" fill="none" fill-rule="evenodd">
        <g id="首页" transform="translate(-25.000000, -801.000000)" fill="#FFFFFF" fill-rule="nonzero">
            <g id="侧导航">
                <g id="广告" transform="translate(0.000000, 613.000000)">
                    <g id="活动" transform="translate(25.000000, 188.000000)">
                        <path d="M12.650104,2.60963406 L12.1584815,2.60963406 C12.407783,2.18695563 12.517181,1.78378967 12.4822235,1.40982827 C12.4532205,1.09684103 12.3048708,0.649226957 11.761325,0.292469507 C11.3106512,-0.00399168336 10.7311219,-0.0767099619 10.0881634,0.0839151698 C9.04548328,0.345711965 7.81150777,1.2456854 7.00011909,2.33332659 C6.18825405,1.24570372 4.95524959,0.345711965 3.91260615,0.0839151698 C3.26911626,-0.0777542909 2.68907394,-0.00454133021 2.23847345,0.292469507 C1.69538571,0.649226957 1.54701771,1.09684103 1.518033,1.40982827 C1.48309378,1.78378967 1.59148414,2.18695563 1.84177499,2.60963406 L1.35017085,2.60963406 C0.605784117,2.60963406 0,3.21589454 0,3.9608126 L0,5.7011411 C0,6.29039917 0.388673611,6.81122621 0.950980662,6.98610551 C0.897536666,7.13397884 0.869559641,7.28683563 0.869559641,7.44174443 L0.869559641,12.6630231 C0.869559641,13.4074281 1.47603998,14.0139268 2.22048167,14.0139268 L11.7812772,14.0139268 C12.5256639,14.0139268 13.1311915,13.4074648 13.1311915,12.6630231 L13.1311915,7.44172611 C13.1312759,7.2861407 13.1040524,7.13174784 13.0507599,6.98557419 C13.6122608,6.80970552 14,6.2888968 14,5.70110446 L14,3.96121567 C14,3.2163709 13.3944724,2.60963406 12.6500857,2.60963406 L12.650104,2.60963406 Z M11.7812955,13.0517333 L7.48076694,13.0517333 L7.48076694,7.05255782 L11.7812955,7.05255782 C11.9956395,7.05255782 12.1694561,7.22740048 12.1694561,7.44174443 L12.1694561,12.6630231 C12.1694561,12.8773854 11.9956211,13.0517333 11.7812772,13.0517333 L11.7812955,13.0517333 Z M8.01035168,2.60963406 C8.69429558,1.82072594 9.59203378,1.20077925 10.3209938,1.01789342 C10.6996638,0.922987732 11.0094081,0.948986028 11.2337556,1.09685935 C11.4720825,1.25345374 11.5144969,1.39310068 11.5240241,1.49854127 C11.5619498,1.88519951 11.1472962,2.40652123 10.9514753,2.60965238 L8.01035168,2.60963406 L8.01035168,2.60963406 Z M13.0377882,3.96127064 L13.0377882,5.70115942 C13.0377882,5.91548505 12.8644479,6.08981471 12.650104,6.08981471 L7.48076694,6.08981471 L7.48076694,3.57237717 L12.6500857,3.57237717 C12.8644113,3.57237717 13.0377882,3.74698165 13.0377882,3.96128896 L13.0377882,3.96127064 Z M6.5190132,7.05255782 L6.5190132,13.051715 L2.22048167,13.051715 C2.0056064,13.051715 1.8317531,12.877367 1.8317531,12.6630231 L1.8317531,7.44174443 C1.8317531,7.22740048 2.00562472,7.05255782 2.22048167,7.05255782 L6.5190132,7.05255782 Z M2.476269,1.49854127 C2.48574124,1.39308236 2.52874195,1.25343542 2.76606114,1.09685935 C2.98885133,0.948986028 3.29859565,0.921705223 3.67931771,1.01789342 C4.40421029,1.19973492 5.30099578,1.81975489 5.98644204,2.60963406 L3.04781012,2.60963406 C2.87245445,2.43202484 2.43779372,1.89447022 2.476269,1.49854127 L2.476269,1.49854127 Z M0.961478916,3.96127064 C0.961478916,3.74699997 1.13536886,3.57234052 1.35017085,3.57234052 L6.51897656,3.57234052 L6.51897656,6.08979639 L1.35015253,6.08979639 C1.13535054,6.08979639 0.961478916,5.91548505 0.961478916,5.7011411 L0.961478916,3.96127064 L0.961478916,3.96127064 Z" id="形状"></path>
                    </g>
                </g>
            </g>
        </g>
    </g>
</svg>