<?xml version="1.0" encoding="UTF-8"?>
<svg width="14px" height="15px" viewBox="0 0 14 15" version="1.1" xmlns="http://www.w3.org/2000/svg" xmlns:xlink="http://www.w3.org/1999/xlink">
    <!-- Generator: Sketch 55.1 (78136) - https://sketchapp.com -->
    <title>icon-广告</title>
    <desc>Created with Sketch.</desc>
    <g id="icon-广告" stroke="none" stroke-width="1" fill="none" fill-rule="evenodd">
        <g id="编组-4">
            <path d="M2,0.5 C1.17157288,0.5 0.5,1.17157288 0.5,2 L0.5,9 C0.5,9.27614237 0.723857625,9.5 1,9.5 L13,9.5 C13.2761424,9.5 13.5,9.27614237 13.5,9 L13.5,2 C13.5,1.17157288 12.8284271,0.5 12,0.5 L2,0.5 Z" id="矩形" stroke="#FFFFFF"></path>
            <rect id="矩形" fill="#FFFFFF" x="0" y="11" width="14" height="1" rx="0.5"></rect>
            <rect id="矩形备份-8" fill="#FFFFFF" transform="translate(7.009064, 12.522308) rotate(-270.000000) translate(-7.009064, -12.522308) " x="5.50906372" y="12.0223083" width="3" height="1" rx="0.5"></rect>
            <path d="M3.3247041,7.08749609 L4.8247041,2.97149609 L5.5807041,2.97149609 L7.0447041,7.08749609 L6.2827041,7.08749609 L5.9107041,6.04349609 L4.3807041,6.04349609 L4.0087041,7.08749609 L3.3247041,7.08749609 Z M5.1307041,3.84749609 L4.5547041,5.49149609 L5.7247041,5.49149609 L5.1487041,3.84749609 L5.1307041,3.84749609 Z M7.6327041,7.08749609 L7.6327041,2.97149609 L8.9827041,2.97149609 C10.2427041,2.97149609 10.9507041,3.57749609 10.9507041,4.92149609 L10.9507041,5.04149609 C10.9507041,6.36149609 10.3087041,7.08749609 8.9887041,7.08749609 L7.6327041,7.08749609 Z M8.3707041,6.50549609 L8.9947041,6.50549609 C9.7987041,6.50549609 10.1707041,6.10949609 10.1707041,5.11349609 L10.1707041,4.91549609 C10.1707041,3.87749609 9.7207041,3.55349609 8.9407041,3.55349609 L8.3707041,3.55349609 L8.3707041,6.50549609 Z" id="AD" fill="#FFFFFF" fill-rule="nonzero"></path>
        </g>
    </g>
</svg>