<?xml version="1.0" encoding="UTF-8"?>
<svg width="15px" height="11px" viewBox="0 0 15 11" version="1.1" xmlns="http://www.w3.org/2000/svg" xmlns:xlink="http://www.w3.org/1999/xlink">
    <!-- Generator: Sketch 56.2 (81672) - https://sketch.com -->
    <title>优惠券</title>
    <desc>Created with Sketch.</desc>
    <g id="页面1" stroke="none" stroke-width="1" fill="none" fill-rule="evenodd">
        <g id="新增商品备份" transform="translate(-25.000000, -970.000000)" fill="#D6D6D6" fill-rule="nonzero" stroke="#D6D6D6" stroke-width="0.3">
            <g id="侧导航">
                <g id="服务备份-6" transform="translate(0.000000, 947.000000)">
                    <path d="M34.0854977,21.8620487 C33.8253866,21.6018319 33.4036433,21.6015336 33.1431643,21.8613821 L25.8604977,29.1437154 C25.601382,29.4044966 25.6016799,29.8256344 25.8611643,30.0860487 L26.780831,31.0053821 C27.6722408,30.5824032 28.7333461,30.7658348 29.4310289,31.4635176 C30.1287117,32.1612003 30.3121432,33.2223056 29.8891643,34.1137154 L30.8084977,35.0333821 C31.0686087,35.2935989 31.4903521,35.2938972 31.750831,35.0340487 L39.033831,27.7517154 C39.2929467,27.4909342 39.2926487,27.0697964 39.0331643,26.8093821 L38.329831,26.1060487 C37.4102005,26.6679783 36.2253685,26.5269739 35.4633038,25.7649093 C34.7012391,25.0028446 34.5602347,23.8180126 35.1221643,22.8983821 L34.0854977,21.8620487 Z M39.5044977,28.2233821 L32.222831,35.5053821 C31.7019805,36.0257073 30.8579801,36.0254088 30.3374977,35.5047154 L29.4528971,34.6201149 C29.2085801,34.3757371 29.1077082,34.0225484 29.1861527,33.6860106 C29.3778646,32.8635395 29.3019187,32.280502 28.9583149,31.9368982 C28.6147115,31.5932948 28.0316751,31.5173486 27.2092057,31.7090596 C26.8726507,31.7875346 26.5194379,31.6866557 26.2750739,31.4422916 L25.3901643,30.5573821 C24.8702056,30.0365954 24.8699073,29.193203 25.3894977,28.6720487 L32.6714977,21.3900487 C33.1923482,20.8697235 34.0363486,20.870022 34.556831,21.3907154 L35.4875046,22.321389 C35.7847332,22.6186232 35.8643545,23.0700049 35.6867575,23.4509935 C35.4894214,23.8743271 35.4248703,24.2266468 35.4931042,24.5079526 C35.6401779,25.1142888 36.1135909,25.5877018 36.7199271,25.7347755 C37.0012327,25.8030093 37.353552,25.7384584 37.7768852,25.5411227 C38.1578751,25.3635222 38.6092597,25.4431441 38.9064929,25.7403773 L39.5041643,26.3380487 C40.0237898,26.8588354 40.024088,27.7022278 39.5044977,28.2233821 Z M29.877831,28.7070487 C29.7515067,28.8378416 29.7533132,29.0457438 29.8818912,29.1743219 C30.0104692,29.3028999 30.2183714,29.3047064 30.3491643,29.1783821 L33.1774977,26.3500487 C33.3038218,26.2192558 33.3020152,26.0113538 33.1734373,25.8827758 C33.0448593,25.7541979 32.8369573,25.7523913 32.7061643,25.8787154 L29.877831,28.7070487 Z M31.877831,30.5453821 C31.7515069,30.676175 31.7533135,30.884077 31.8818914,31.012655 C32.0104694,31.1412329 32.2183714,31.1430395 32.3491643,31.0167154 L35.015831,28.3500487 C35.1421553,28.2192558 35.1403489,28.0113536 35.0117708,27.8827756 C34.8831928,27.7541975 34.6752906,27.7523911 34.5444977,27.8787154 L31.877831,30.5453821 Z" id="优惠券" transform="translate(32.447018, 28.447715) rotate(-315.000000) translate(-32.447018, -28.447715) "></path>
                </g>
            </g>
        </g>
    </g>
</svg>