<?xml version="1.0" encoding="UTF-8"?>
<svg width="13px" height="12px" viewBox="0 0 13 12" version="1.1" xmlns="http://www.w3.org/2000/svg" xmlns:xlink="http://www.w3.org/1999/xlink">
    <!-- Generator: Sketch 55.1 (78136) - https://sketchapp.com -->
    <title>icon-设备管理2</title>
    <desc>Created with Sketch.</desc>
    <g id="运营管理后台所有" stroke="none" stroke-width="1" fill="none" fill-rule="evenodd">
        <g id="首页" transform="translate(-60.000000, -951.000000)" fill="#FFFFFF">
            <g id="侧导航">
                <g id="服务备份-5" transform="translate(0.000000, 891.000000)">
                    <g id="icon-设备管理2" transform="translate(60.000000, 60.000000)">
                        <g id="设备管理">
                            <path d="M11.5,6 C11.2234375,6 11,5.7765043 11,5.49986976 C11,3.01797343 8.98125,0.998697577 6.5,0.998697577 C4.01875,0.998697577 2,3.01797343 2,5.49986976 C2,5.7765043 1.7765625,6 1.5,6 C1.2234375,6 1,5.7765043 1,5.49986976 C1,4.75748893 1.1453125,4.0369888 1.4328125,3.35868716 C1.709375,2.70382912 2.10625,2.11461318 2.6109375,1.60979422 C3.115625,1.10497525 3.7046875,0.707996874 4.359375,0.431362334 C5.0375,0.145350352 5.7578125,0 6.5,0 C7.2421875,0 7.9625,0.145350352 8.640625,0.432925241 C9.2953125,0.709559781 9.884375,1.10653816 10.3890625,1.61135712 C10.89375,2.11617609 11.290625,2.70539203 11.5671875,3.36025007 C11.8546875,4.03855171 12,4.75905184 12,5.50143266 C12,5.7765043 11.7765625,6 11.5,6 Z" id="路径" fill-rule="nonzero"></path>
                            <path d="M9.50022311,6 C9.22378402,6 9.00044623,5.77664975 9.00044623,5.50019524 C9.00044623,4.12104647 7.87907184,2.99960953 6.5,2.99960953 C5.12092816,2.99960953 3.99955377,4.12104647 3.99955377,5.50019524 C3.99955377,5.77664975 3.77621598,6 3.49977689,6 C3.2233378,6 3,5.77664975 3,5.50019524 C3,4.56462319 3.36390004,3.68527919 4.02454261,3.02459977 C4.68518519,2.36392034 5.56448014,2 6.5,2 C7.43551986,2 8.31481481,2.36392034 8.97545739,3.02459977 C9.63609996,3.68527919 10,4.56462319 10,5.50019524 C10,5.77664975 9.7766622,6 9.50022311,6 Z" id="路径" fill-rule="nonzero"></path>
                            <path d="M6.5,8 C6.225,8 6,7.81114754 6,7.58032787 L6,4.41967213 C6,4.18885246 6.225,4 6.5,4 C6.775,4 7,4.18885246 7,4.41967213 L7,7.58032787 C7,7.81114754 6.775,8 6.5,8 Z" id="路径" fill-rule="nonzero"></path>
                            <path d="M11.9985677,8 L12,8.00117188 L12,10.9988281 L11.9985677,11 L1.00143229,11 L1,10.9988281 L1,8.00117188 L1.00143229,8 L11.9985677,8 L11.9985677,8 Z M12.0714286,7 L0.928571429,7 C0.417857143,7 0,7.375 0,7.83333333 L0,11.1666667 C0,11.625 0.417857143,12 0.928571429,12 L12.0714286,12 C12.5821429,12 13,11.625 13,11.1666667 L13,7.83333333 C13,7.375 12.5821429,7 12.0714286,7 Z" id="形状" fill-rule="nonzero"></path>
                            <path d="M2.49973972,9 C2.22332119,9 2,9.2234375 2,9.5 C2,9.7765625 2.22332119,10 2.49973972,10 C2.77615825,10 2.99947944,9.7765625 2.99947944,9.5 C2.99947944,9.2234375 2.77615825,9 2.49973972,9 Z M4.50026028,9 C4.22384175,9 4.00052056,9.2234375 4.00052056,9.5 C4.00052056,9.7765625 4.22384175,10 4.50026028,10 C4.77667881,10 5,9.7765625 5,9.5 C5,9.2234375 4.77511713,9 4.50026028,9 Z" id="形状" fill-rule="nonzero"></path>
                        </g>
                    </g>
                </g>
            </g>
        </g>
    </g>
</svg>