<?xml version="1.0" encoding="UTF-8"?>
<svg width="15px" height="14px" viewBox="0 0 15 14" version="1.1" xmlns="http://www.w3.org/2000/svg" xmlns:xlink="http://www.w3.org/1999/xlink">
    <!-- Generator: Sketch 55.1 (78136) - https://sketchapp.com -->
    <title>icon-首页</title>
    <desc>Created with Sketch.</desc>
    <g id="运营管理后台所有" stroke="none" stroke-width="1" fill="none" fill-rule="evenodd">
        <g id="首页" transform="translate(-24.000000, -21.000000)">
            <g id="侧导航">
                <g id="编组-3">
                    <g id="编组-2" transform="translate(25.000000, 18.000000)">
                        <g id="icon-首页" transform="translate(0.000000, 3.000000)">
                            <g id="编组-16" transform="translate(0.496582, 0.572632)">
                                <path d="M1.53674307,6.80253269 L0.516455609,6.80253269 C0.231225052,6.80253269 0,6.57130764 0,6.28607708 C0,6.14910454 0.0544121312,6.01774203 0.151266346,5.92088782 L5.76962147,0.302532691 C6.1729984,-0.10084423 6.8270016,-0.10084423 7.23037853,0.302532691 L12.8487337,5.92088782 C13.0504221,6.12257628 13.0504221,6.44957788 12.8487337,6.65126635 C12.7518794,6.74812056 12.6205169,6.80253269 12.4835444,6.80253269 L11.519104,6.80253269" id="形状" stroke="#FFFFFF" stroke-linecap="round"></path>
                                <path d="M5.33868179,6.79501495 L5.33868179,12.295015 C5.33868179,12.5711573 5.11482417,12.795015 4.83868179,12.795015 L3.22757068,12.795015 C2.2948231,12.795015 1.53868179,11.8995845 1.53868179,10.795015 L1.53868179,6.79501495" id="形状" stroke="#FFFFFF" transform="translate(3.438682, 9.795015) rotate(-360.000000) translate(-3.438682, -9.795015) "></path>
                                <path d="M11.5193741,6.79527435 L11.5193741,12.2952744 C11.5193741,12.5714167 11.2955165,12.7952744 11.0193741,12.7952744 L9.40826297,12.7952744 C8.4755154,12.7952744 7.71937408,11.8998439 7.71937408,10.7952744 L7.71937408,6.79527435" id="形状备份" stroke="#FFFFFF" transform="translate(9.619621, 9.782106) scale(-1, 1) translate(-9.619621, -9.782106) "></path>
                                <rect id="矩形" fill="#FFFFFF" x="5.05029297" y="6.79348755" width="3" height="1"></rect>
                            </g>
                        </g>
                    </g>
                </g>
            </g>
        </g>
    </g>
</svg>