<?xml version="1.0" encoding="UTF-8"?>
<svg width="14px" height="14px" viewBox="0 0 14 14" version="1.1" xmlns="http://www.w3.org/2000/svg" xmlns:xlink="http://www.w3.org/1999/xlink">
    <!-- Generator: Sketch 56.2 (81672) - https://sketch.com -->
    <title>权限资源管理</title>
    <desc>Created with Sketch.</desc>
    <g id="页面1" stroke="none" stroke-width="1" fill="none" fill-rule="evenodd">
        <g id="广告-广告推送" transform="translate(-40.000000, -933.000000)" fill="#D6D6D6" fill-rule="nonzero">
            <g id="权限资源管理" transform="translate(40.000000, 933.000000)">
                <path d="M6.65655092,12.9285623 L1.30434783,12.9285623 C1.18354246,12.9285623 1.05048147,12.7805934 1.05048147,12.5684452 L1.05048147,1.42977206 C1.05048147,1.21762384 1.18529326,1.06965491 1.30434783,1.06965491 L10.6956522,1.06965491 C10.8164575,1.06965491 10.9495185,1.21762384 10.9495185,1.42977206 L10.9495185,7.33426716 C10.9495185,7.63020502 11.1841261,7.86909461 11.4747593,7.86909461 C11.7653925,7.86909461 12,7.63020502 12,7.33426716 L12,1.42977206 C12,0.641792945 11.415232,0 10.6956522,0 L1.30434783,0 C0.584768019,0 0,0.641792945 0,1.42977206 L0,12.5702279 C0,13.3582071 0.584768019,14 1.30434783,14 L6.65830172,14 C6.94893493,14 7.18354246,13.7611104 7.18354246,13.4651725 C7.18354246,13.1692347 6.94718413,12.9285623 6.65655092,12.9285623 Z M9.50882018,3.19572608 L2.92886179,3.19572608 C2.62762817,3.19572608 2.38446369,3.42350656 2.38446369,3.70568237 C2.38446369,3.98785818 2.62762817,4.21563866 2.92886179,4.21563866 L9.50882018,4.21563866 C9.81005379,4.21563866 10.0532183,3.98785818 10.0532183,3.70568237 C10.0532183,3.42350656 9.80823913,3.19572608 9.50882018,3.19572608 Z M10.0532183,6.31665857 C10.0532183,6.03448276 9.81005379,5.80670228 9.50882018,5.80670228 L2.92886179,5.80670228 C2.62762817,5.80670228 2.38446369,6.03448276 2.38446369,6.31665857 C2.38446369,6.59883439 2.62762817,6.82661486 2.92886179,6.82661486 L9.50882018,6.82661486 C9.80823913,6.82661486 10.0532183,6.59883439 10.0532183,6.31665857 Z M3.06859063,8.41937834 C2.76735702,8.41937834 2.52419253,8.64715881 2.52419253,8.92933463 C2.52419253,9.21151044 2.76735702,9.43929092 3.06859063,9.43929092 L6.03011631,9.43929092 C6.33134992,9.43929092 6.57451441,9.21151044 6.57451441,8.92933463 C6.57451441,8.64715881 6.33134992,8.41937834 6.03011631,8.41937834 L3.06859063,8.41937834 Z M13.2542791,10.780476 C12.5737815,10.2875182 11.6483047,10.2926178 10.9786951,10.73288 L10.1312487,10.1192326 L10.6683881,9.46648859 C10.8516688,9.24380767 10.808117,8.92253521 10.5703965,8.75084993 C10.332676,8.57916464 9.98970517,8.61996115 9.80642447,8.84264206 L9.26928501,9.49538611 L8.57608476,8.99392909 L9.11322422,8.3428849 C9.29650492,8.12020398 9.25295307,7.79893152 9.01523257,7.62724624 C8.77751206,7.45556095 8.43454126,7.49635746 8.25126056,7.71903837 L7.04814076,9.17751336 L10.3018267,11.5318116 C9.98970517,12.2593492 10.2147231,13.1228752 10.909738,13.6260321 C11.2581527,13.8776105 11.6700806,14 12.0801939,14 C12.6554412,14 13.2234299,13.7603205 13.6008792,13.3013599 C14.2468983,12.5160272 14.0926522,11.3856241 13.2542791,10.780476 Z M12.7389156,12.6775134 C12.6028161,12.8423992 12.4068327,12.9477902 12.1872588,12.973288 C11.9676849,13.0004857 11.7499257,12.9443905 11.5739036,12.8169014 C11.2109716,12.5551238 11.1438291,12.0655658 11.4251015,11.7255949 C11.561201,11.5607091 11.7571843,11.4553181 11.9767582,11.4298203 C12.0130514,11.4247207 12.0493447,11.4230209 12.0838232,11.4230209 C12.2671039,11.4230209 12.4431259,11.4791161 12.5901134,11.584507 C12.9512308,11.8496843 13.0183733,12.3375425 12.7389156,12.6775134 L12.7389156,12.6775134 Z" id="形状"></path>
            </g>
        </g>
    </g>
</svg>