<?xml version="1.0" encoding="UTF-8"?>
<svg width="14px" height="14px" viewBox="0 0 14 14" version="1.1" xmlns="http://www.w3.org/2000/svg" xmlns:xlink="http://www.w3.org/1999/xlink">
    <!-- Generator: Sketch 55.1 (78136) - https://sketchapp.com -->
    <title>icon-服务</title>
    <desc>Created with Sketch.</desc>
    <g id="icon-服务" stroke="none" stroke-width="1" fill="none" fill-rule="evenodd">
        <g stroke="#FFFFFF">
            <g id="编组-8">
                <path d="M5.91666667,5.91666667 L5.91666667,3.20833333 C5.91666667,1.71256214 4.70410453,0.5 3.20833333,0.5 C1.71256214,0.5 0.5,1.71256214 0.5,3.20833333 C0.5,4.70410453 1.71256214,5.91666667 3.20833333,5.91666667 L5.91666667,5.91666667 Z" id="矩形"></path>
                <path d="M13.5,5.91666667 L13.5,3.20833333 C13.5,1.71256214 12.2874379,0.5 10.7916667,0.5 C9.29589547,0.5 8.08333333,1.71256214 8.08333333,3.20833333 C8.08333333,4.70410453 9.29589547,5.91666667 10.7916667,5.91666667 L13.5,5.91666667 Z" id="矩形备份-16" transform="translate(10.791667, 3.208333) scale(-1, 1) translate(-10.791667, -3.208333) "></path>
            </g>
            <g id="编组-8备份" transform="translate(7.000000, 10.500000) scale(1, -1) translate(-7.000000, -10.500000) translate(0.000000, 7.000000)">
                <path d="M5.91666667,5.91666667 L5.91666667,3.20833333 C5.91666667,1.71256214 4.70410453,0.5 3.20833333,0.5 C1.71256214,0.5 0.5,1.71256214 0.5,3.20833333 C0.5,4.70410453 1.71256214,5.91666667 3.20833333,5.91666667 L5.91666667,5.91666667 Z" id="矩形"></path>
                <path d="M13.5,5.91666667 L13.5,3.20833333 C13.5,1.71256214 12.2874379,0.5 10.7916667,0.5 C9.29589547,0.5 8.08333333,1.71256214 8.08333333,3.20833333 C8.08333333,4.70410453 9.29589547,5.91666667 10.7916667,5.91666667 L13.5,5.91666667 Z" id="矩形备份-16" transform="translate(10.791667, 3.208333) scale(-1, 1) translate(-10.791667, -3.208333) "></path>
            </g>
        </g>
    </g>
</svg>