<?xml version="1.0" encoding="UTF-8"?>
<svg width="13px" height="13px" viewBox="0 0 13 13" version="1.1" xmlns="http://www.w3.org/2000/svg" xmlns:xlink="http://www.w3.org/1999/xlink">
    <!-- Generator: Sketch 55.1 (78136) - https://sketchapp.com -->
    <title>编组 27</title>
    <desc>Created with Sketch.</desc>
    <g id="页面1" stroke="none" stroke-width="1" fill="none" fill-rule="evenodd">
        <g id="首页" transform="translate(-27.000000, -998.000000)">
            <g id="侧导航">
                <g id="编组-27" transform="translate(28.000000, 999.000000)">
                    <circle id="椭圆形" stroke="#FFFFFF" cx="6.45568848" cy="5.99890137" r="4"></circle>
                    <rect id="矩形" fill="#FFFFFF" transform="translate(10.304932, 9.820557) rotate(-45.000000) translate(-10.304932, -9.820557) " x="9.80493164" y="8.32055664" width="1" height="3" rx="0.5"></rect>
                    <g id="编组-16" transform="translate(3.821489, 3.495166)" fill="#FFFFFF" fill-rule="nonzero">
                        <path d="M1.5958542,-8.43769499e-15 L1.59697404,-8.43769499e-15 C1.69253463,-8.43769499e-15 1.78772194,0.0455406 1.85864582,0.125050002 C1.94039492,0.216131191 1.98108284,0.341554467 1.96727134,0.459512069 C1.94823388,0.625249975 1.83400912,0.727529666 1.60070688,0.882069059 C1.29162809,1.08662845 0.994867656,1.41138515 0.8440611,1.70926544 C0.749247073,1.8962805 0.624570368,2.00863885 0.483842467,2.03364885 C0.464385833,2.03720401 0.444642275,2.03895344 0.424863661,2.03887735 C0.346474117,2.03887735 0.245314262,2.01162512 0.138181887,1.91158512 C-0.066750791,1.72009065 -0.0256896004,1.58608185 0.143407857,1.25087322 C0.403959779,0.735741912 1.19905377,0.00149314375 1.5958542,-8.43769499e-15 L1.5958542,-8.43769499e-15 Z" id="路径备份-2"></path>
                        <path d="M2.74892712,4.50926544 C3.22635679,4.44954007 3.58246931,4.29126784 3.90423975,3.9967471 C4.2551263,3.67497667 4.4458742,3.30206639 4.54143478,2.74960673 C4.61833119,2.30539928 4.67880313,2.14040795 5.01625148,2.17027064 C5.14242133,2.18146914 5.23350252,2.22588989 5.29546759,2.30614585 C5.39364117,2.43268898 5.41043892,2.63500868 5.35257996,2.98290895 C5.15921907,4.14232769 4.31223867,5.04530063 3.19500098,5.28270898 C2.9605789,5.33235569 2.79857384,5.36035196 2.67203071,5.36035196 C2.55876502,5.36460782 2.44733295,5.33083655 2.35548625,5.26441809 C2.26851118,5.20357286 2.21027894,5.09345421 2.19945372,4.96989735 C2.18862849,4.84671378 2.22670342,4.72838289 2.30173341,4.65335289 C2.38086953,4.57384349 2.6291031,4.52457006 2.74892712,4.50926544 L2.74892712,4.50926544 Z" id="路径备份"></path>
                    </g>
                    <path d="M4.33809814,11 L2,11 C0.8954305,11 0,10.1791887 0,9.16666667 L0,1.83333333 C0,0.820811292 0.8954305,0 2,0 L9,0 C10.1045695,0 11,0.820811292 11,1.83333333 L11,2.36920166" id="路径" stroke="#FFFFFF" stroke-linecap="round"></path>
                </g>
            </g>
        </g>
    </g>
</svg>