<?xml version="1.0" encoding="UTF-8"?>
<svg width="14px" height="13px" viewBox="0 0 14 13" version="1.1" xmlns="http://www.w3.org/2000/svg" xmlns:xlink="http://www.w3.org/1999/xlink">
    <!-- Generator: Sketch 56.2 (81672) - https://sketch.com -->
    <title>住户管理</title>
    <desc>Created with Sketch.</desc>
    <g id="页面1" stroke="none" stroke-width="1" fill="none" fill-rule="evenodd">
        <g id="首页" transform="translate(-27.000000, -1068.000000)" fill-rule="nonzero">
            <g id="住户管理" transform="translate(27.000000, 1067.000000)">
                <rect id="矩形" fill="#000000" opacity="0" x="0" y="0" width="14" height="14"></rect>
                <path d="M4.00050661,13.1209692 C4.00017026,13.1140249 4,13.1070336 4,13.1 C4,11.3326888 5.34314575,9.9 7,9.9 C8.65685425,9.9 10,11.3326888 10,13.1 C10,13.1090813 9.99971628,13.1180919 9.99915779,13.1270224 L10.968,13.128 C11.104,13.128 11.168,13.096 11.192,13.072 C11.232,13.024 11.232,12.912 11.224,12.88 C11.216,12.848 11.216,12.824 11.216,12.792 L11.216,9.064 C11.216,8.816 11.416,8.616 11.664,8.616 C11.912,8.616 12.112,8.816 12.112,9.064 L12.08,12.68 C12.104,12.84 12.12,13.24 11.856,13.56 C11.712,13.728 11.44,13.936 10.944,13.936 L3.032,13.936 C2.536,13.936 2.264,13.736 2.12,13.56 C1.856,13.24 1.872,12.84 1.896,12.68 L1.896,9.072 C1.896,8.824 2.096,8.624 2.344,8.624 C2.592,8.624 2.792,8.824 2.792,9.072 L2.792,12.8 C2.792,12.824 2.792,12.848 2.784,12.88 C2.776,12.936 2.784,13.032 2.816,13.072 C2.84,13.096 2.912,13.12 3.04,13.12 L4.00050661,13.1209692 Z M4.74945318,13.121725 L9.25079565,13.1262672 C9.25026795,13.1175841 9.25,13.1088254 9.25,13.1 C9.25,11.7745166 8.24264069,10.7 7,10.7 C5.75735931,10.7 4.75,11.7745166 4.75,13.1 C4.74999895,13.1072889 4.74981514,13.1145322 4.74945318,13.121725 Z M13.6,7.232 C13.768,7.416 13.752,7.696 13.568,7.872 C13.488,7.952 13.376,7.992 13.264,7.992 C13.144,7.992 13.024,7.936 12.936,7.848 L7.84,2.376 L7.824,2.36 C7.8,2.336 7.488,1.976 7.064,1.968 C6.768,1.96 6.456,2.128 6.144,2.456 C5.424,3.216 3.8,4.944 1.304,7.584 C1.152,7.744 1.064,7.84 1.056,7.848 C0.976,7.936 0.864,7.992 0.744,7.992 L0.728,7.992 C0.608,7.992 0.496,7.952 0.416,7.872 C0.24,7.696 0.232,7.408 0.4,7.232 C0.408,7.224 0.488,7.136 0.632,6.984 C3.136,4.336 4.768,2.6 5.504,1.832 C6,1.304 6.544,1.048 7.112,1.064 C7.896,1.096 8.416,1.656 8.52,1.768 L13.6,7.232 Z M7,10.3 C5.75735931,10.3 4.75,9.2254834 4.75,7.9 C4.75,6.5745166 5.75735931,5.5 7,5.5 C8.24264069,5.5 9.25,6.5745166 9.25,7.9 C9.25,8.53651957 9.01294711,9.14696896 8.59099026,9.59705627 C8.16903341,10.0471436 7.5967371,10.3 7,10.3 Z M7,6.30000001 C6.39330663,6.30000001 5.8463522,6.68982749 5.6141807,7.28770652 C5.3820092,7.88558554 5.51034283,8.57377407 5.93933983,9.03137086 C6.36833683,9.48896766 7.01351357,9.62585686 7.57402516,9.37820726 C8.13453674,9.13055766 8.5,8.54713959 8.5,7.9 C8.5,7.0163444 7.82842712,6.30000001 7,6.30000001 Z" id="形状结合" fill="#FFFFFF"></path>
            </g>
        </g>
    </g>
</svg>